# xmcd
# 
# Track frame offsets:
#     165
#     18563
#     32124
#     48904
#     61257
#     78275
#     90009
#     111962
#     130277
#     144234
#     162027
#     175218
#     181394
#     196527
#     213995
#     229107
#     241833
#     253625
#     267235
#     283575
#     298300
#     316324
# 
# Disc length: 4419
# 
# Revision: 1
# Processed by: cddbd v1.5.2PL0 Copyright (c) Steve Scherf et al.
# Submitted via: BonkEnc v1.0
# 
DISCID=2a114116
DTITLE=CHRYSTIAN E RALF - DOSE DUPLA 2
DYEAR=1997
DGENRE=Country
TTITLE0=O MAIS FRACO CORAÇÃO
TTITLE1=PAIXÃO PREFERIDA
TTITLE2=NOVA YORK
TTITLE3=QUE QUERES TU DE MIM
TTITLE4=JEITO GOSTOSO
TTITLE5=BATALHA DO AMOR
TTITLE6=MÃE TERRA
TTITLE7=A MELHRO MENTIRA
TTITLE8=DISTÂNCIA
TTITLE9=CAMINHEIRO
TTITLE10=SEPARAÇÃO
TTITLE11=SAUDADE
TTITLE12=MINHA VIDA SEM VOCÊ
TTITLE13=OSTOSO PECADO
TTITLE14=DESCULPA
TTITLE15=PRISIONEIRO DO SOFRIMENTO
TTITLE16=SAUDADE
TTITLE17=PRECE
TTITLE18=DEZ MINUTOS
TTITLE19=TE AMAR TE AMAR
TTITLE20=NOITE
TTITLE21=ENXUGUE OS OLHOS
EXTD=
EXTT0=
EXTT1=
EXTT2=
EXTT3=
EXTT4=
EXTT5=
EXTT6=
EXTT7=
EXTT8=
EXTT9=
EXTT10=
EXTT11=
EXTT12=
EXTT13=
EXTT14=
EXTT15=
EXTT16=
EXTT17=
EXTT18=
EXTT19=
EXTT20=
EXTT21=
PLAYORDER=
